<?xml version="1.0" encoding="UTF-8"?>
<svg id="Layer_2" data-name="Layer 2" xmlns="http://www.w3.org/2000/svg" xmlns:xlink="http://www.w3.org/1999/xlink" viewBox="0 0 320.31 191.33">
  <defs>
    <style>
      .cls-1 {
        fill: none;
      }

      .cls-2 {
        fill: #231f20;
      }

      .cls-3 {
        fill: #fff;
      }

      .cls-4 {
        clip-path: url(#clippath);
      }
    </style>
    <clipPath id="clippath">
      <rect class="cls-1" x="92.67" y="37.69" width="128.03" height="153.64"/>
    </clipPath>
  </defs>
  <g id="Layer_1-2" data-name="Layer 1">
    <g>
      <g>
        <g>
          <path class="cls-3" d="M.34,127.48l.66-3.01,16.01,3.52-.66,3.01L.34,127.48Z"/>
          <path class="cls-3" d="M16.56,131.34l-16.56-3.64.78-3.57,16.56,3.64-.78,3.57ZM.68,127.26l15.45,3.4.54-2.45-15.45-3.4-.54,2.45Z"/>
        </g>
        <g>
          <path class="cls-3" d="M7.59,119.53l-.58,2.13-4.97-2.23.71-2.61,4.84,2.71Z"/>
          <path class="cls-3" d="M7.2,122.05l-5.5-2.47.87-3.2,5.36,3-.72,2.67ZM2.38,119.26l4.44,1.99.43-1.59-4.33-2.42-.55,2.02Z"/>
        </g>
        <g>
          <path class="cls-3" d="M4.11,112.39l1.06-2.89,13.02,4.79,4.56-12.4,2.36.87-5.62,15.29-15.38-5.66Z"/>
          <path class="cls-3" d="M19.66,118.41l-15.92-5.85,1.26-3.43,13.02,4.79,4.56-12.4,2.9,1.06-5.82,15.83ZM4.48,112.22l14.84,5.46,5.43-14.75-1.82-.67-4.56,12.4-13.02-4.79-.87,2.36Z"/>
        </g>
        <g>
          <path class="cls-3" d="M11.33,93.67l1.42-2.74,12.32,6.39,6.08-11.73,2.23,1.16-7.5,14.46-14.55-7.55Z"/>
          <path class="cls-3" d="M26,101.6l-15.05-7.81,1.68-3.25,12.32,6.39,6.08-11.73,2.74,1.42-7.77,14.97ZM11.71,93.55l14.04,7.28,7.24-13.95-1.72-.89-6.08,11.73-12.32-6.39-1.16,2.23Z"/>
        </g>
        <g>
          <path class="cls-3" d="M38.92,58.18l5.75,12.59-2.25,2.6-17.35-5.01,2.25-2.6,13.39,3.86-5.78-12.62,2.25-2.6,13.31,3.92-5.7-12.68,2.25-2.6,7.41,16.46-2.27,2.61-13.26-3.94Z"/>
          <path class="cls-3" d="M42.51,73.7l-17.96-5.19,2.67-3.07,12.96,3.74-5.6-12.22,2.5-2.87,12.88,3.8-5.52-12.28,2.67-3.07,7.67,17.03-2.51,2.89-12.83-3.81,5.56,12.19-2.5,2.87ZM25.57,68.21l16.74,4.84,2.01-2.32-5.93-12.99,13.68,4.07,2.03-2.34-7.16-15.88-1.84,2.12,5.88,13.08-13.73-4.04-2.01,2.32,5.97,13.02-13.81-3.99-1.84,2.12Z"/>
        </g>
        <g>
          <path class="cls-3" d="M50.65,40.48l11.02-8.55c1.85-1.43,3.55-2.07,5.11-1.91,1.56.16,2.85.91,3.89,2.25.54.7.92,1.44,1.15,2.23.22.79.24,1.59.04,2.4,1.41-.25,2.5.13,3.29,1.14l2.02,2.6-2.44,1.89-1.6-2.06c-.4-.51-.84-.77-1.34-.78-.5,0-.96.11-1.4.35-.44.24-.92.56-1.44.97l-.15.12-8.58,6.66,2.91,3.75-2.44,1.89-10.04-12.95ZM68.93,36.79c.21-.87-.02-1.74-.68-2.61-.66-.85-1.44-1.28-2.35-1.3-.9-.02-2.02.49-3.34,1.51l-7.95,6.16,4.07,5.25,7.95-6.16c1.32-1.03,2.09-1.98,2.3-2.85Z"/>
          <path class="cls-3" d="M60.64,53.83l-10.39-13.4,11.25-8.72c1.9-1.47,3.69-2.14,5.31-1.97,1.63.17,3.01.97,4.09,2.36.56.73.96,1.51,1.2,2.33.2.7.24,1.42.13,2.14,1.32-.13,2.38.31,3.16,1.31l2.2,2.83-2.89,2.24-1.77-2.29c-.34-.44-.71-.66-1.12-.67-.44-.01-.87.1-1.26.31-.43.23-.9.55-1.4.94l-8.51,6.6,2.91,3.75-2.89,2.24ZM51.05,40.53l9.69,12.5,1.98-1.54-2.91-3.75,8.96-6.95c.53-.41,1.03-.74,1.48-.99.48-.26.99-.4,1.54-.38.58,0,1.11.31,1.56.89l1.42,1.84,1.98-1.54-1.84-2.38c-.72-.93-1.7-1.27-3.01-1.04l-.43.08.1-.42c.18-.76.17-1.52-.04-2.25-.21-.75-.58-1.47-1.1-2.13-.98-1.27-2.22-1.99-3.69-2.14-1.48-.15-3.12.47-4.9,1.85l-10.79,8.37ZM58.63,46.21l-4.42-5.7,8.17-6.34c1.39-1.08,2.53-1.59,3.53-1.57.99.02,1.85.5,2.57,1.41.72.93.97,1.89.74,2.85-.23.95-1.02,1.93-2.41,3.01l-8.17,6.34ZM55.01,40.61l3.72,4.79,7.72-5.99c1.27-.98,2.01-1.89,2.2-2.69h0c.19-.79-.01-1.57-.63-2.36-.61-.78-1.3-1.17-2.13-1.19-.85-.02-1.9.47-3.16,1.45l-7.72,5.99Z"/>
        </g>
        <g>
          <path class="cls-3" d="M71.3,25.37l2.62-1.63,8.64,13.93-2.62,1.62-8.64-13.93Z"/>
          <path class="cls-3" d="M79.84,39.69l-8.94-14.41,3.11-1.93,8.94,14.41-3.11,1.93ZM71.69,25.46l8.34,13.44,2.13-1.32-8.34-13.44-2.13,1.32Z"/>
        </g>
        <g>
          <path class="cls-3" d="M77.14,21.44l19.03-9.29,1.09,2.24-8.1,3.96,6.1,12.49-2.77,1.35-6.1-12.49-8.16,3.99-1.09-2.24Z"/>
          <path class="cls-3" d="M92.36,32.57l-6.1-12.49-8.16,3.99-1.34-2.75,19.54-9.54,1.34,2.75-8.1,3.96,6.1,12.49-3.28,1.6ZM86.52,19.31l6.1,12.49,2.26-1.1-6.1-12.49,8.1-3.96-.84-1.72-18.52,9.04.84,1.72,8.16-3.99Z"/>
        </g>
        <g>
          <path class="cls-3" d="M100.25,10.7l16.22-5.18.76,2.37-13.28,4.25,1.28,4,13.28-4.24.76,2.37-13.28,4.24,1.43,4.47,13.28-4.24.77,2.39-16.22,5.18-4.99-15.61Z"/>
          <path class="cls-3" d="M105.05,26.67l-5.16-16.16,16.77-5.36.93,2.92-13.28,4.25,1.1,3.45,13.28-4.24.93,2.92-13.28,4.24,1.26,3.93,13.28-4.24.94,2.94-16.77,5.36ZM100.61,10.89l4.81,15.06,15.68-5.01-.59-1.85-13.28,4.24-1.6-5.02,13.28-4.24-.58-1.83-13.28,4.24-1.45-4.54,13.28-4.25-.58-1.83-15.68,5.01Z"/>
        </g>
        <g>
          <path class="cls-3" d="M128.73,2.7l3.92-.41,8.33,7.89,6.54-9.43,3.94-.41-8.66,12.36.51,4.95-3.07.32-.51-4.95-10.99-10.33Z"/>
          <path class="cls-3" d="M139.98,18.3l-.53-5.13-11.37-10.69,4.67-.48,8.18,7.75,6.42-9.26,4.69-.49-8.96,12.79.53,5.13-3.64.38ZM129.38,2.92l10.61,9.98.49,4.78,2.5-.26-.49-4.78,8.36-11.94-3.19.33-6.65,9.59-8.47-8.03-3.16.33Z"/>
        </g>
        <g>
          <path class="cls-3" d="M156.64,16.36c-1.68-.84-2.91-1.94-3.69-3.29-.78-1.36-1.14-2.85-1.07-4.5.07-1.64.55-3.11,1.45-4.39.89-1.28,2.21-2.27,3.96-2.97,1.75-.69,3.87-.99,6.36-.88,2.5.11,4.58.58,6.27,1.42,1.68.84,2.92,1.94,3.7,3.29.79,1.35,1.15,2.85,1.08,4.5-.07,1.64-.56,3.11-1.46,4.39-.9,1.28-2.23,2.27-3.97,2.96-1.75.69-3.87.99-6.36.88-2.5-.11-4.58-.58-6.27-1.42ZM155.73,11.9c.56.97,1.45,1.75,2.67,2.34,1.22.6,2.74.94,4.57,1.01,1.85.08,3.41-.13,4.69-.62,1.28-.49,2.25-1.19,2.9-2.11.66-.91,1.01-1.96,1.06-3.12.05-1.17-.21-2.24-.79-3.2-.58-.97-1.48-1.75-2.71-2.36-1.23-.61-2.77-.95-4.62-1.03-1.83-.08-3.38.13-4.64.63-1.26.5-2.22,1.21-2.86,2.12-.64.91-.99,1.96-1.04,3.12-.05,1.17.21,2.24.77,3.2Z"/>
          <path class="cls-3" d="M163.88,18.08c-.32,0-.65,0-.98-.02-2.52-.11-4.67-.59-6.38-1.45h0c-1.72-.86-3.01-2.01-3.81-3.4-.8-1.4-1.18-2.96-1.1-4.65s.58-3.22,1.5-4.54c.92-1.32,2.3-2.36,4.09-3.07,1.78-.7,3.96-1.01,6.48-.9,2.53.11,4.67.6,6.38,1.45,1.72.86,3.01,2.01,3.82,3.4.81,1.4,1.19,2.96,1.12,4.65-.07,1.69-.58,3.22-1.51,4.54-.93,1.32-2.31,2.36-4.1,3.07-1.54.61-3.39.92-5.5.92ZM156.77,16.1c1.64.82,3.71,1.28,6.15,1.39,2.44.11,4.54-.18,6.25-.86,1.69-.67,2.98-1.63,3.84-2.86.87-1.23,1.34-2.66,1.41-4.24.07-1.58-.28-3.04-1.04-4.34-.76-1.3-1.96-2.37-3.59-3.18-1.64-.82-3.71-1.28-6.15-1.39-2.44-.1-4.54.19-6.25.86-1.69.67-2.97,1.63-3.83,2.86-.86,1.23-1.33,2.66-1.39,4.24-.07,1.58.28,3.04,1.03,4.34.75,1.3,1.95,2.37,3.57,3.18h0ZM163.7,15.56c-.24,0-.49,0-.75-.02-1.86-.08-3.44-.43-4.69-1.04-1.26-.62-2.2-1.45-2.79-2.46h0c-.59-1.01-.86-2.14-.8-3.36.05-1.22.42-2.32,1.09-3.28.67-.96,1.67-1.7,2.99-2.22,1.3-.51,2.9-.73,4.76-.65,1.88.08,3.47.44,4.73,1.06,1.28.63,2.23,1.46,2.83,2.47.6,1.01.88,2.14.83,3.36-.05,1.22-.43,2.32-1.11,3.28-.69.96-1.71,1.7-3.03,2.21-1.13.44-2.49.65-4.06.65ZM162.78,3.09c-1.48,0-2.77.21-3.82.63-1.21.48-2.12,1.16-2.73,2.02-.61.86-.94,1.86-.98,2.97-.05,1.11.2,2.13.73,3.05h0c.53.91,1.38,1.66,2.54,2.23,1.18.58,2.68.91,4.46.99,1.8.07,3.34-.13,4.58-.6,1.22-.47,2.15-1.14,2.77-2.01.62-.86.96-1.86,1.01-2.97.05-1.11-.21-2.13-.75-3.04-.54-.91-1.42-1.67-2.59-2.25-1.19-.59-2.71-.92-4.51-1-.24-.01-.47-.02-.7-.02Z"/>
        </g>
        <g>
          <path class="cls-3" d="M178.64,17.59c-1.56-1.29-2.09-3.15-1.6-5.57l2.06-10.11,3.02.62-1.91,9.36c-.65,3.21,1.23,5.26,5.66,6.17,4.45.91,7-.24,7.65-3.45l1.91-9.36,3.02.62-2.06,10.11c-.49,2.42-1.72,3.91-3.67,4.49-1.95.58-4.4.6-7.36.06-2.93-.66-5.18-1.64-6.73-2.94Z"/>
          <path class="cls-3" d="M189.3,21.2c-1.21,0-2.54-.13-3.98-.39-2.97-.67-5.28-1.68-6.87-3-1.64-1.36-2.21-3.33-1.7-5.84l2.12-10.39,3.58.73-1.97,9.65c-.31,1.52-.03,2.73.85,3.7.9.98,2.44,1.7,4.58,2.13,2.15.44,3.86.39,5.07-.16,1.2-.54,1.93-1.54,2.24-3.06l1.97-9.65,3.58.73-2.12,10.39c-.51,2.52-1.81,4.1-3.86,4.71-1.03.31-2.2.46-3.51.46ZM179.33,2.25l-2.01,9.83c-.48,2.33.02,4.06,1.5,5.29h0c1.52,1.26,3.74,2.23,6.61,2.88,2.89.53,5.32.51,7.21-.05,1.86-.55,2.99-1.95,3.47-4.27l2.01-9.83-2.46-.5-1.86,9.08c-.35,1.69-1.21,2.86-2.57,3.47-1.32.6-3.15.66-5.42.2-2.26-.46-3.91-1.24-4.89-2.31-1-1.09-1.34-2.51-.99-4.2l1.86-9.08-2.46-.5Z"/>
        </g>
        <g>
          <path class="cls-3" d="M211.91,10.28l2.84,1.2-5.41,12.78,12.16,5.15-.98,2.32-15-6.35,6.39-15.09Z"/>
          <path class="cls-3" d="M220.68,32.1l-15.53-6.57,6.61-15.62,3.37,1.42-5.41,12.78,12.16,5.15-1.2,2.84ZM205.9,25.22l14.48,6.13.76-1.79-12.16-5.15,5.41-12.78-2.31-.98-6.17,14.56Z"/>
        </g>
        <g>
          <path class="cls-3" d="M230.29,18.37l14.69,8.61-1.26,2.15-12.03-7.05-2.12,3.62,12.03,7.05-1.26,2.15-12.03-7.05-2.37,4.05,12.03,7.05-1.27,2.17-14.69-8.61,8.28-14.14Z"/>
          <path class="cls-3" d="M236.8,41.51l-15.19-8.89,8.57-14.63,15.19,8.9-1.55,2.64-12.03-7.05-1.83,3.13,12.03,7.05-1.55,2.64-12.03-7.05-2.08,3.56,12.03,7.05-1.56,2.66ZM222.4,32.41l14.2,8.32.98-1.68-12.03-7.05,2.66-4.55,12.03,7.05.97-1.65-12.03-7.05,2.41-4.12,12.03,7.05.97-1.65-14.2-8.32-7.99,13.65Z"/>
        </g>
        <g>
          <path class="cls-3" d="M247.96,28.88l16.56,13.21-1.55,1.95-7.04-5.62-8.67,10.86-2.41-1.92,8.67-10.86-7.1-5.66,1.55-1.95Z"/>
          <path class="cls-3" d="M247.3,49.68l-2.86-2.28,8.67-10.86-7.1-5.66,1.91-2.39,17,13.56-1.91,2.39-7.04-5.62-8.67,10.86ZM245.25,47.31l1.96,1.57,8.67-10.86,7.04,5.62,1.2-1.5-16.11-12.85-1.2,1.5,7.1,5.66-8.67,10.86Z"/>
        </g>
        <g>
          <path class="cls-3" d="M267.18,44.57l14.33,15.59-1.83,1.69-6.1-6.64-10.23,9.4-2.09-2.27,10.23-9.4-6.15-6.69,1.83-1.68Z"/>
          <path class="cls-3" d="M263.32,65.02l-2.47-2.69,10.23-9.4-6.15-6.69,2.25-2.07,14.72,16.02-2.26,2.07-6.1-6.64-10.23,9.4ZM261.66,62.36l1.7,1.85,10.23-9.4,6.1,6.64,1.41-1.3-13.94-15.17-1.41,1.3,6.15,6.69-10.23,9.4Z"/>
        </g>
        <g>
          <path class="cls-3" d="M284.05,63.64l9.61,14.06-2.06,1.4-7.87-11.51-3.47,2.37,7.87,11.51-2.06,1.41-7.87-11.51-3.88,2.65,7.87,11.51-2.08,1.42-9.61-14.06,13.53-9.25Z"/>
          <path class="cls-3" d="M280.06,87.35l-9.93-14.53,14-9.57,9.93,14.53-2.53,1.73-7.87-11.51-2.99,2.05,7.87,11.51-2.53,1.73-7.87-11.51-3.4,2.33,7.87,11.51-2.55,1.74ZM270.92,72.97l9.29,13.58,1.6-1.1-7.87-11.51,4.35-2.97,7.87,11.51,1.58-1.08-7.87-11.51,3.94-2.69,7.87,11.51,1.58-1.08-9.29-13.58-13.06,8.93Z"/>
        </g>
        <g>
          <path class="cls-3" d="M295.94,81.41l6.08,12.55c1.02,2.11,1.29,3.9.81,5.39-.48,1.49-1.48,2.6-3.01,3.34-.8.39-1.6.61-2.42.66-.82.05-1.6-.1-2.35-.45-.05,1.43-.65,2.42-1.8,2.98l-2.97,1.44-1.34-2.77,2.35-1.14c.58-.28.93-.67,1.04-1.15s.09-.96-.05-1.44c-.14-.47-.36-1.01-.65-1.61l-.08-.17-4.74-9.77-4.27,2.07-1.34-2.77,14.75-7.15ZM295.77,100.06c.81.39,1.71.34,2.69-.13.97-.47,1.55-1.14,1.76-2.03.21-.88-.06-2.08-.79-3.58l-4.39-9.05-5.98,2.9,4.39,9.05c.73,1.51,1.5,2.46,2.31,2.84Z"/>
          <path class="cls-3" d="M290.16,107.7l-1.59-3.29,2.61-1.26c.5-.25.79-.56.88-.95.1-.44.08-.86-.05-1.29-.14-.46-.35-.98-.63-1.57l-4.7-9.69-4.27,2.07-1.59-3.29,15.26-7.4,6.21,12.8c1.05,2.17,1.33,4.05.82,5.61-.5,1.56-1.57,2.74-3.15,3.51-.83.4-1.68.63-2.53.69-.73.05-1.44-.06-2.12-.32-.15,1.32-.79,2.27-1.93,2.82l-3.22,1.56ZM289.33,104.67l1.09,2.26,2.71-1.31c1.06-.51,1.59-1.41,1.64-2.73v-.44s.41.19.41.19c.7.33,1.45.48,2.21.43.78-.05,1.56-.26,2.31-.63,1.44-.7,2.4-1.77,2.86-3.17.46-1.41.19-3.15-.79-5.18l-5.96-12.29-14.23,6.9,1.09,2.26,4.27-2.07,4.95,10.2c.3.61.52,1.16.66,1.65.16.52.17,1.06.06,1.58-.13.57-.53,1.02-1.19,1.34l-2.09,1.01ZM296.92,100.61c-.44,0-.87-.1-1.27-.29-.88-.42-1.68-1.4-2.45-2.98l-4.51-9.31,6.49-3.15,4.51,9.31c.77,1.58,1.03,2.82.81,3.77-.22.97-.87,1.71-1.91,2.22-.58.28-1.14.42-1.67.42ZM289.45,88.3l4.26,8.79c.7,1.44,1.43,2.35,2.18,2.71h0c.74.35,1.54.31,2.44-.13.89-.43,1.42-1.03,1.61-1.83.19-.81-.07-1.95-.77-3.39l-4.26-8.79-5.46,2.65Z"/>
        </g>
        <g>
          <path class="cls-3" d="M293.02,112.22c.48-2.12,1.63-3.47,3.45-4.06l.86,2.96c-.62.18-1.1.65-1.43,1.41-.33.76-.48,1.77-.44,3.03.04,1.26.28,2.68.75,4.28.55,1.88,1.07,3.35,1.56,4.41.5,1.06,1.01,1.78,1.53,2.17.53.39,1.11.49,1.74.31.52-.15.84-.56.97-1.25.13-.68.12-1.56-.03-2.65-.15-1.08-.42-2.52-.81-4.32-.52-2.42-.84-4.43-.95-6.05-.11-1.61.03-2.93.45-3.95.41-1.02,1.15-1.68,2.21-1.99,1.56-.45,2.97.05,4.22,1.52,1.25,1.47,2.36,3.88,3.33,7.23.99,3.42,1.29,6.13.88,8.15-.4,2.02-1.48,3.31-3.25,3.87l-.86-2.96c1.07-.39,1.66-1.26,1.76-2.6.11-1.34-.18-3.16-.85-5.47-1.44-4.95-2.9-7.21-4.39-6.78-.5.15-.81.58-.93,1.3-.12.72-.1,1.66.06,2.84.16,1.17.44,2.74.84,4.69.48,2.27.78,4.12.93,5.57.14,1.45.03,2.69-.33,3.71-.36,1.03-1.1,1.7-2.2,2.02-1.35.39-2.52.3-3.52-.29-.99-.58-1.87-1.6-2.62-3.04s-1.48-3.36-2.18-5.76c-1-3.43-1.25-6.21-.77-8.32Z"/>
          <path class="cls-3" d="M300.57,130.16c-.78,0-1.48-.19-2.12-.56-1.03-.61-1.95-1.67-2.73-3.16-.76-1.45-1.5-3.41-2.2-5.82-1-3.46-1.27-6.31-.78-8.46h0c.5-2.21,1.73-3.65,3.64-4.27l.28-.09,1.02,3.52-.27.08c-.54.16-.95.57-1.25,1.25-.31.72-.45,1.7-.42,2.91.03,1.23.28,2.64.74,4.21.54,1.86,1.06,3.33,1.55,4.37.47,1.01.96,1.7,1.44,2.06.45.34.94.42,1.49.26.41-.12.66-.45.77-1.03.13-.65.12-1.51-.03-2.55-.15-1.07-.42-2.52-.81-4.3-.52-2.42-.84-4.47-.96-6.09-.12-1.65.04-3.02.47-4.07.44-1.1,1.25-1.82,2.4-2.15,1.68-.49,3.19.05,4.52,1.61,1.27,1.49,2.41,3.96,3.39,7.34,1,3.44,1.3,6.23.89,8.29-.42,2.12-1.58,3.49-3.44,4.08l-.28.09-1.02-3.5.25-.09c.97-.35,1.48-1.12,1.58-2.35.1-1.3-.18-3.11-.84-5.37-1.72-5.91-3.14-6.84-4.03-6.58-.39.11-.63.46-.73,1.07-.12.68-.1,1.61.06,2.75.16,1.15.44,2.73.84,4.67.48,2.26.79,4.15.93,5.6.14,1.48.03,2.77-.34,3.84-.39,1.11-1.2,1.86-2.39,2.2-.57.16-1.11.25-1.62.25ZM296.28,108.53c-1.57.61-2.55,1.84-2.98,3.76h0c-.47,2.06-.21,4.81.77,8.18.69,2.37,1.41,4.29,2.16,5.71.73,1.39,1.57,2.37,2.52,2.93.92.54,2.03.63,3.29.26,1.02-.3,1.68-.9,2.01-1.84.34-.98.45-2.19.31-3.59-.14-1.43-.45-3.3-.92-5.54-.4-1.96-.69-3.55-.85-4.71-.16-1.2-.18-2.18-.06-2.92.14-.83.52-1.35,1.14-1.52,1.69-.49,3.24,1.79,4.74,6.97.68,2.33.97,4.2.86,5.57-.11,1.35-.68,2.27-1.7,2.74l.7,2.42c1.51-.57,2.42-1.74,2.78-3.55.39-1.96.1-4.66-.88-8.02-.96-3.3-2.06-5.7-3.28-7.13-1.18-1.38-2.46-1.85-3.92-1.43-.98.29-1.65.88-2.03,1.82-.39.97-.54,2.26-.43,3.82.11,1.59.43,3.61.95,6.01.39,1.8.66,3.26.81,4.34.15,1.11.16,2.03.03,2.74-.15.79-.55,1.28-1.17,1.47-.72.21-1.4.09-1.99-.35-.57-.42-1.1-1.17-1.62-2.28-.5-1.07-1.03-2.56-1.58-4.45-.47-1.61-.72-3.07-.76-4.35-.04-1.29.12-2.36.47-3.15.32-.73.77-1.23,1.34-1.48l-.7-2.41Z"/>
        </g>
      </g>
      <g>
        <path class="cls-3" d="M316.66,131.57c-.61,0-1.23-.16-1.8-.48-.92-.51-1.63-1.36-1.98-2.4s-.31-2.14.12-3.1c.43-.97,1.2-1.69,2.16-2.01.97-.33,2.01-.22,2.94.29.92.51,1.63,1.36,1.98,2.4.35,1.04.31,2.14-.12,3.1-.43.97-1.2,1.69-2.16,2.01h0c-.37.13-.75.19-1.14.19ZM316.29,123.97c-.32,0-.64.05-.95.16-.81.27-1.46.88-1.82,1.7-.37.83-.4,1.79-.1,2.69.31.9.91,1.64,1.71,2.08.79.43,1.67.52,2.48.25h0c.81-.27,1.46-.88,1.82-1.7.37-.83.4-1.79.1-2.69-.3-.9-.91-1.64-1.71-2.08-.49-.27-1.01-.4-1.53-.4Z"/>
        <g>
          <path class="cls-3" d="M317.5,124.92l.93,2.76c.16.46.17.84.03,1.14-.14.3-.37.5-.71.61-.17.06-.35.08-.52.07-.17-.01-.33-.06-.48-.16-.05.3-.2.49-.45.57l-.65.22-.21-.61.52-.17c.13-.04.21-.11.24-.21s.04-.2.03-.3c-.02-.1-.05-.22-.09-.35v-.04s-.74-2.15-.74-2.15l-.94.32-.21-.61,3.24-1.1ZM316.98,128.78c.16.1.34.12.56.04.21-.07.35-.2.42-.37.07-.18.04-.43-.07-.76l-.67-1.99-1.31.44.67,1.99c.11.33.25.55.41.65Z"/>
          <path class="cls-3" d="M315.48,130.5l-.39-1.15.79-.27s.06-.03.07-.04c.02-.05.02-.1.01-.15-.02-.09-.04-.19-.08-.31l-.65-1.91-.94.32-.39-1.15,3.78-1.28,1.02,3.03c.18.53.18.99.02,1.35-.17.37-.47.62-.88.76-.21.07-.42.1-.63.09-.1,0-.19-.02-.28-.05-.13.26-.35.39-.53.45l-.92.31ZM315.81,129.71l.02.07.38-.13c.11-.04.22-.11.26-.34v-.09s0,.02,0,.03c-.05.13-.16.29-.42.38l-.25.08ZM316.54,128.87l.37.24c.11.07.22.1.34.11.13,0,.27-.01.41-.06.26-.09.44-.24.54-.46.05-.1.07-.21.07-.34,0,.07-.02.13-.05.19-.07.18-.22.42-.59.55-.37.13-.64.03-.81-.07-.13-.08-.24-.21-.34-.38.01.06.03.11.03.16,0,.05.01.1.01.15v-.07ZM316.27,126.32l.58,1.72c.12.35.23.46.29.5h0c.05.03.14.07.31.01.17-.06.22-.14.24-.2.02-.06.05-.22-.07-.57l-.58-1.72-.77.26ZM314.63,126.2l.02.07,2.7-.91-.02-.07-2.7.91Z"/>
        </g>
      </g>
      <g class="cls-4">
        <polyline class="cls-3" points="200.45 142.9 200.46 142.9 200.46 142.9 200.45 142.9"/>
        <polygon class="cls-3" points="202.22 119.02 202.22 119.02 202.22 119.01 202.22 119.02 202.22 119.02"/>
        <path class="cls-3" d="M132.93,89.56c.09,0,.18,0,.28,0,.25,0,.49,0,.74.02.2,0,.41-.01.61-.01.16,0,.31,0,.47,0,2.22-.03,4.41,0,6.61-.08.01,0,.03,0,.04-.01.02,0,.03,0,.05-.01,0,0,0,0,.01,0,0,0,0,0,.01,0,.02,0,.04,0,.05.01.03,0,.06.01.08.02.88-.04,1.77-.09,2.66-.18-.72-1.76-1.43-3.5-2.12-5.23-.06-.16-.15-.32-.25-.46,0,0,0,0,0,0h.02s0-.01,0,0c1.42,1.7,2.52,3.54,3.64,5.54.02.04.04.07.07.1.02,0,.04,0,.07,0l1.27-.08c1.14-2.01,2.34-3.99,3.61-5.92.08-.12.15-.23.21-.33.02-.03.04-.07.06-.09.01-.02.02-.03.03-.04.01-.01.02-.02.02,0,0,0,0,.03-.01.06-.03.1-.06.2-.09.29-.06.2-.12.39-.19.58-.13.38-.26.77-.42,1.16-.04.1-.08.2-.12.3-.26.63-.52,1.27-.78,1.92-.13.32-.25.65-.38.98-.13.33-.25.66-.38.99h.14s.13-.02.13-.02c.7-.35,1.83-.17,2.55-.19.9-.03,1.8-.05,2.7-.07.21,0,.42,0,.64-.01.35,0,.7,0,1.05,0l5.99.11c.52.03,1.04.07,1.55.11.51.04,1,.09,1.49.14.98.11,1.92.23,2.82.38.11.02.21.04.32.06.21.04.43.08.65.13.11.02.22.05.33.07,1.31.32,2.63.8,3.69,1.48.25.16.5.33.75.52.12.09.24.19.36.28.12.1.23.2.35.3.38-.08.77-.16,1.18-.23.68-.11,1.4-.2,2.16-.26.33-.33.67-.66,1-.99.5-.5,1-.99,1.5-1.48.5-.5,1-.99,1.49-1.49.99-.99,1.96-1.99,2.92-3,.32-.34.63-.68.94-1.02.3-.33.61-.66.91-.99.91-.99,1.84-1.96,2.77-2.93.25-.26.46-.55.63-.86,0-.02.01-.04.01-.05,0-.02-.01-.03-.03-.04,0,0-.02-.01-.03-.01,0,0-.01,0-.02,0,0,0-.01,0-.02.01l-3.44,3.6s-.06.04-.09.06c-.08.04-.15.02-.21-.05l-19.81-14.53c-.29-.39-.54-.79-.74-1.2-.23-.48-.41-.96-.52-1.47-.05-.22-.09-.43-.11-.65,0,0,0-.01,0-.02-.06-.17-.11-.34-.15-.51-.04-.17-.08-.35-.11-.52-.03-.17-.05-.35-.06-.53-.01-.18-.02-.36-.02-.54,0-.45.05-.91.14-1.38.05-.28.13-.57.21-.86.07-.23.15-.45.18-.68-2.37-.95-4.54-1.69-7.14-1.81-2.69-.12-5.38.21-8.04.5-.56.06-1.13.13-1.69.2-.09.01-.18.02-.26.03-.31.04-.62.09-.92.15,0,0-.02,0-.03,0-.9.17-1.75.39-2.59.68,0,0,0,.01-.01.02,0,.01-.02.03-.04.04l-.14.09s-.08,0-.12.02l-.29.06c-.06.02-.12.05-.18.07.01,0,.03,0,.04,0,.02,0,.04,0,.06,0-.02.01-.03.02-.05.03-.05,0-.11.02-.16.03-.75.32-1.49.7-2.22,1.16-.09.06-.18.11-.27.17-.43.28-.84.57-1.23.86-.48.44-.94.89-1.39,1.35-.45.46-.88.94-1.3,1.43-.73.86-1.41,1.77-2.03,2.73-.09.14-.18.27-.26.41-.36.59-.72,1.2-1.13,1.78-.24.34-.5.67-.78.97-.59.93-1.18,1.89-1.75,2.82-.06.09-.11.19-.17.28-.11.19-.22.37-.33.55-.38.64-.73,1.25-1.05,1.82-.18.33-.35.64-.51.93-.31.59-.57,1.11-.74,1.53-.08.23-.16.45-.23.68,0,0,0,0,0,0,0,.04-.02.08-.03.11-.01.03-.02.06-.03.08,0,0,0,0,0,0-.02.05-.03.1-.05.16-.03.1-.06.2-.09.3-.01.05-.03.1-.04.15-.16.59-.26,1.14-.31,1.65-.09,1.04-.2,2-.31,2.9-.07.56-.15,1.09-.23,1.59-.02.1-.03.2-.05.3-.03.2-.07.39-.1.58,0,.04-.02.08-.03.13-.02.09-.05.19-.09.31-.04.12-.08.25-.14.39-.08.22-.18.46-.29.73-.02.04-.14.27-.36.69-.06.12-.11.23-.16.36-.04.12-.08.25-.11.38,0,0,0,.02,0,.02,0,.03-.02.05-.03.07l-.2.34s0,.03,0,.04c0,.02.02.03.04.04,0,0,.01,0,.02,0l2.5-.83s.06.01.09.02c.06.01.11.02.17.03.08.01.16.02.25.01.06,0,.12-.01.18-.03.4-.1.8-.16,1.2-.2.3-.03.6-.03.91-.02.06,0,.12,0,.19,0,.04,0,.09,0,.14,0,.63-.03,1.26-.05,1.9-.04M163.39,83.63s0,0,0,.01c0,0,0,0,0-.01h0M151.84,58.78s0,0,0,0c0,0,0,0,0,0h0s0,0,0,0c0,0,0,0,0,0h0M142.07,89.24s0,0,0,0c0,0,0,0,0,0h0s0,.01,0,.02c0-.01,0-.02,0-.03h0s0,0,0,0h0M136.22,65.9s0,0,0,0h0s0,0,0,0c0,0,0,.01,0,.02,0,0,0-.02,0-.02h0"/>
        <path class="cls-3" d="M136.73,108.96c.85.52,1.72,1.07,2.58,1.57.52.3,1.04.59,1.56.85.14.07.29.15.43.22.44.22.89.43,1.35.65.31.14.62.29.94.43.32.15.64.29.97.43.16.06.32.13.47.2.16.07.32.14.48.21,1.26.54,2.54.82,3.84.94,1.19.11,2.38.09,3.59,0,.44-.03.88-.07,1.32-.11.55-.05,1.1-.12,1.65-.18,1.06-.12,2.24-.26,3.54-.42.37-.05.75-.09,1.14-.14.59-.07,1.19-.15,1.82-.23.63-.08,1.28-.17,1.95-.26.23-.03.45-.06.68-.09,1.55-.21,3.03-.47,4.43-.77.84-.18,1.65-.38,2.43-.6.08-.02.19-.06.31-.1.06-.02.13-.05.2-.07.07-.03.14-.05.22-.08.04-.01.08-.03.12-.04.12-.05.25-.1.38-.15.18-.07.36-.15.56-.23,0,0,0,0-.01-.01h0s0,0,0,0c0,0,0,.01.01.02.04-.02.09-.04.13-.05.04-.02.08-.04.13-.05l.07-.03s.05-.02.07-.03c.01,0,.03-.01.04-.02.01,0,.03-.01.04-.02.15-.06.3-.13.45-.19.06-.03.13-.06.19-.08.27-.12.54-.23.79-.34.19-.08.37-.16.54-.23.06-.03.11-.05.16-.07.02-.01.05-.02.07-.03.02-.01.05-.02.07-.03.02,0,.04-.02.05-.02.04-.02.08-.03.12-.05.08-.03.15-.06.21-.09.03-.01.06-.03.09-.04.04-.02.08-.03.11-.05.04-.02.08-.04.12-.05.02,0,.03-.02.05-.02.01,0,.03-.01.04-.02.01,0,.02,0,.03-.01,0,0,.02,0,.02,0,0,0,.01,0,.01,0,.82-.37,1.59-.77,2.35-1.2.45-.26.9-.53,1.35-.81.02-.02.04-.04.06-.05.06-.03.12-.07.18-.1.33-.21.65-.42.98-.64,1.93-1.29,3.73-2.73,5.47-4.28.29-.26.58-.52.86-.79,0,0,0,0,0,0,0,0,0,0,0,0,.06-.07.13-.15.19-.23.06-.08.13-.15.19-.23.16-.19.32-.36.48-.53.16-.17.33-.33.5-.49.25-.24.52-.47.78-.7.09-.08.18-.15.27-.23.03-.03.06-.06.09-.1.04-.06.08-.12.12-.2.04-.08.07-.16.1-.26.02-.06.04-.13.06-.21,0-.04.02-.07.03-.11.06-.27.11-.58.15-.92,0-.05.01-.1.02-.15.08-.8.11-1.77.11-2.75,0-.44,0-.89-.02-1.32,0-.11,0-.22,0-.32h0c0-.11,0-.21-.01-.32h0c0-.11,0-.21-.01-.31-.03-.92-.08-1.73-.12-2.27,0-.04,0-.08,0-.12,0-.04,0-.07,0-.11,0-.03,0-.07,0-.1,0-.03,0-.06,0-.09,0-.04,0-.08,0-.11,0-.03,0-.06,0-.09,0-.06,0-.1,0-.1-.02-.26-.05-.51-.07-.77-.08-.77-.16-1.54-.25-2.29-.06-.5-.11-1-.17-1.48-.06-.49-.12-.96-.17-1.42-.04-.31-.08-.61-.11-.9-.04-.29-.07-.57-.11-.85-.02,0-.04,0-.07.03,0,0-.02.01-.03.02l-6.29,6.17c-1.75,1.74-3.48,3.5-5.19,5.28-.06.07-.14.13-.21.19-.03.02-.05.04-.08.06-.04.03-.08.06-.12.09-.02.02-.04.03-.06.05-.11.08-.18.19-.25.3-.05.07-.09.15-.14.23-.07.12-.14.23-.23.33-.42.3-.85.51-1.28.65-.07.02-.14.04-.22.06-.07.02-.15.03-.22.05-.02,0-.04,0-.07.01.28.78.43,1.59.47,2.39.06,1.15-.11,2.31-.46,3.4-.11.33-.23.65-.37.97-.05.11-.09.21-.15.32-.1.21-.21.41-.32.61-.51.91-1.16,1.74-1.91,2.46-.09.09-.18.17-.28.26-.19.17-.39.33-.59.48-.21.16-.42.31-.64.45-.22.14-.43.27-.65.39-1.1.61-2.26.98-3.55,1.18-.26.04-.52.07-.79.1-.16.02-.32.03-.48.04-.8.06-1.62.07-2.45.02-.33-.02-.66-.05-.99-.09-.83-.1-1.64-.25-2.43-.49-.31-.09-.62-.2-.93-.32-.15-.06-.3-.12-.45-.18-.86-.38-1.68-.79-2.46-1.23-.52-.29-1.02-.6-1.51-.92-.73-.48-1.42-1-2.07-1.54-2.1-1.77-4.02-3.64-5.76-5.64-.25-.29-.49-.57-.73-.86-.15-.06-.3-.12-.46-.16-.31-.08-.63-.12-.96-.11-.16,0-.33.02-.5.05-.1.02-.19.03-.29.06-.72.17-1.17.41-1.53.78-.05.05-.1.11-.15.16-.13.27-.25.55-.37.82-.19.41-.38.82-.57,1.22-.71,1.49-1.51,2.94-2.6,4.25-.95,1.14-2.21,1.87-3.78,2.19-1.02.21-2,.21-2.95.02,0,0-.05,0-.05,0-.01,0-.03,0-.04.01-.08.03-.08.08,0,.14.34.32.7.59,1.1.83.13.08.27.16.41.24.83.47,1.71.91,2.5,1.37.13.08.26.15.39.23M188.19,96.63s0,0,0,0c0,0,0,0-.01,0,0,0,0,0,.01,0M186.27,88.17h0s-.03.02-.04.03c.01-.01.03-.02.04-.03M183.72,102.14s0,0,0,0h0s0,0,0,0c0,0,0,0,0,.01,0,0,0,0,0,0,0,0,0,0,0,0,0,0,0-.02,0-.02h0M181.77,106.77s0,0,0,0h0s0,0,0,0h0s0,0,0,0c0,0,0,.01.01.02M180.38,105.56s0,0,0,0c0,0,0,0,0-.01,0,0,0,0,0,0M179.53,105.43s0,0,0,0t0,0s0,0,0,0t0,0s0,0,0,0c0,0,0,0,0,0,0,0,0,0,0,0,0,0,0,0,0,0,0,0,0,0,0,0M172.81,108.93s0,0,0,0h.01s0,0,0,0h0s0,0-.01,0h0,0s0,0,0,0M149.82,113.91h0s0,0,0,0h0s0,0,0-.01h0s0,0,0,.01M151.86,113.35h0s0,0,0,0h0s0,0,0,0c0,0,0,0,0,0h0,0M152,113.36h0s0-.01,0-.02c0,0,0,0,0,.01t0,0s0,0,0,0h0s0,0,0,0M152.11,112.12c.15.05.48.18.68.3.06.04.12.08.15.12.01.02.02.03.03.05.03.04.04.08.04.12,0,.01,0,.03,0,.04-.01.06-.05.11-.09.14-.03.02-.07.03-.11.03,0,0,0,0-.01,0,0,0,0,0-.01,0-.01,0-.02,0-.03,0h0s0,0,0,0c-.01,0-.02,0-.04-.01-.63-.26-1.26-.54-1.89-.82-.42-.19-1.01-.4-1.75-.62-.49-.15-1.05-.3-1.69-.46-.15-.04-.26-.1-.4-.17-.02-.01-.04-.02-.07-.02-.02,0-.03,0-.05,0-.32.03-.67,0-1.04-.1-.41-.1-.74,0-.94.36-.01.02-.02.04-.03.07-.02.05-.06.08-.1.09-.02,0-.04.01-.06.01,0,0,0,0-.01,0,0,0,0,0,0,0-.02,0-.04,0-.06-.02,0,0-.01,0-.02,0-.25-.15-.04-.75.11-1.07.03-.06.05-.11.07-.15,0-.01.02-.02.03-.03.02-.01.04-.02.07-.02.72.15,1.43.4,2.11.62.31.1.61.19.9.27.41.11.82.22,1.23.33,1.01.29,2.01.6,3,.95M143.32,102.68c.99,0,1.98.07,2.94.38.43.14.86.33,1.27.58.06.04.12.08.18.13.12.11.23.23.31.38.02.04.03.08.02.12-.3,1.3-2.86,2.23-3.95,2.46-.03,0-.06,0-.09,0-.01,0-.02,0-.03,0-.83-.31-2.96-1.29-3.06-2.33-.02-.18,0-.34.02-.48.21-.99,1.44-1.22,2.39-1.22M140.56,106.96h0s0,0,0,0h0s0,0,0,0c0,0,0,0,0,0t0,0s0,0,0,0"/>
        <path class="cls-2" d="M181.76,106.77h0s0,0,0,0c0,0,0-.01-.01-.02,0,0,0,0,0,0,0,0,0,0,0,0"/>
        <path class="cls-2" d="M152,113.36h0s0,0,0,0c0,0,0,0,0-.01,0,0,0,.01,0,.02h0s0,0,0,0"/>
        <path class="cls-2" d="M183.73,102.16s0,0,0-.01c0,0,0,0,0,0h0s0,0,0,0h0s0,.01,0,.02c0,0,0,0,0,0"/>
        <path class="cls-2" d="M188.19,96.63s0,0-.01,0c0,0,0,0,.01,0h0"/>
        <polyline class="cls-2" points="172.81 108.93 172.81 108.93 172.81 108.93 172.82 108.93 172.82 108.93 172.81 108.93 172.81 108.93 172.81 108.93 172.81 108.93 172.81 108.93"/>
        <path class="cls-2" d="M180.38,105.56s0,0,0,0c0,0,0,0,0,.01,0,0,0,0,0,0"/>
        <polyline class="cls-2" points="151.84 58.79 151.84 58.79 151.84 58.79 151.84 58.78 151.84 58.78 151.84 58.79"/>
        <path class="cls-2" d="M136.22,65.93s0-.01,0-.02h0s0,0,0,0h0s0,.02,0,.03"/>
        <path class="cls-2" d="M163.39,83.63h0s0,0,0,.01c0,0,0,0,0-.01"/>
        <path class="cls-2" d="M142.07,89.28s0-.01,0-.02c0,0,0,0,0,0s0,0,0,0c0,0,0,0,0,0h0s0,.02,0,.04"/>
        <path class="cls-2" d="M186.27,88.17s-.03.02-.04.03c.01-.01.03-.02.04-.03h0"/>
        <polyline class="cls-2" points="179.53 105.44 179.54 105.44 179.54 105.44 179.54 105.44 179.54 105.44 179.53 105.43 179.53 105.43 179.53 105.44"/>
        <polyline class="cls-2" points="149.82 113.9 149.82 113.9 149.82 113.9 149.82 113.91 149.82 113.91 149.82 113.91 149.82 113.9 149.82 113.9"/>
        <polyline class="cls-2" points="140.56 106.97 140.57 106.96 140.57 106.96 140.56 106.96 140.56 106.96 140.56 106.97 140.56 106.97"/>
        <polyline class="cls-2" points="151.86 113.35 151.86 113.35 151.86 113.35 151.86 113.35 151.86 113.35 151.86 113.35 151.86 113.35 151.86 113.35"/>
        <path class="cls-3" d="M140.9,104.39c.1,1.04,2.23,2.02,3.06,2.33,0,0,.02,0,.03,0,.03,0,.06,0,.09,0,1.08-.23,3.65-1.15,3.95-2.46,0-.04,0-.08-.02-.12-.08-.15-.18-.27-.31-.38-.05-.05-.11-.09-.18-.13-.42-.25-.84-.44-1.27-.58-.96-.31-1.95-.37-2.94-.38-.95,0-2.18.24-2.39,1.22-.03.14-.04.31-.02.48"/>
        <path class="cls-3" d="M149.1,111.17c-.41-.12-.82-.23-1.23-.33-.29-.07-.59-.17-.9-.27-.68-.22-1.39-.47-2.11-.62-.03,0-.05,0-.07.02-.01,0-.02.02-.03.03-.02.04-.05.09-.07.15-.15.32-.36.92-.11,1.07,0,0,.01,0,.02,0,.02,0,.04.01.06.02,0,0,0,0,0,0,0,0,0,0,.01,0,.02,0,.04,0,.06-.01.04-.01.08-.05.1-.09.01-.02.02-.05.04-.07.2-.37.52-.46.94-.36.37.09.72.13,1.04.1.02,0,.03,0,.05,0,.02,0,.05.01.07.02.14.07.24.13.4.17.63.16,1.19.31,1.69.46.75.22,1.33.43,1.75.62.62.28,1.25.55,1.89.82.01,0,.02,0,.04.01,0,0,0,0,0,0h0s.02,0,.03,0c0,0,0,0,.01,0,0,0,0,0,.01,0,.04,0,.08-.01.11-.03.05-.03.08-.08.09-.14,0-.01,0-.03,0-.04,0-.04-.01-.08-.04-.12,0-.02-.02-.03-.03-.05-.03-.04-.08-.08-.15-.12-.21-.12-.53-.25-.68-.3-.99-.35-1.99-.67-3-.95"/>
        <path class="cls-3" d="M179.06,138.21c-.87.56-1.78,1.25-2.72,2.01-.24.19-.47.38-.71.58-.59.5-1.19,1.01-1.78,1.55-.24.21-.47.43-.7.64-.23.22-.47.43-.7.65-.23.22-.46.43-.68.65-.23.22-.45.43-.67.65-3.3,3.22-5.91,6.16-5.91,6.16-1.3-1.58-1.77-4.63-1.75-8.31,0-.92.04-1.88.11-2.86.04-.59.09-1.19.14-1.8.04-.4.08-.81.12-1.22.04-.41.09-.82.14-1.23.1-.82.21-1.65.33-2.48.06-.42.12-.83.19-1.24.26-1.65.54-3.28.84-4.83.67-3.49,1.38-6.6,1.89-8.72-1.17.27-2.36.52-3.56.74-.6.11-1.2.21-1.8.31-.2.03-.4.06-.6.09-.8.12-1.61.22-2.41.3-1.2.12-2.39.2-3.56.24-.39,0-.78.01-1.16.01-.38,0-.77,0-1.15-.02-1.51-.05-2.98-.21-4.35-.49-.23,1.21-.63,3.23-1.19,5.68-.08.33-.15.66-.23,1-.28,1.19-.6,2.46-.95,3.77-.1.37-.2.75-.31,1.13-.1.38-.21.76-.32,1.15-1.99,6.91-4.83,14.27-8.31,16.58,0,0-3.93-2.25-8.21-3.95-.18-.07-.37-.14-.55-.22-.18-.07-.37-.14-.55-.21-.18-.07-.37-.13-.55-.2-.18-.07-.37-.13-.55-.19-.09-.03-.18-.06-.27-.09-.18-.06-.36-.12-.55-.17-.54-.17-1.08-.31-1.6-.43-.16.1-.33.2-.49.29-.5.28-1.01.54-1.54.76,0,0,31.9,12.55,34.44,28.07,0,0,4.9-22.67,25.36-35.82-.89.17-1.98.71-3.17,1.48"/>
        <path class="cls-3" d="M149.98,171.9s-14.73-1.23-20.07.31c-.14.04-.28.08-.41.13-.13.04-.25.09-.36.14-.15.07-.29.13-.41.21-.15.09-.28.19-.39.29-.08.08-.18.17-.27.25-.09.09-.19.17-.29.26-2.5,2.17-7.17,5.1-7.24,6.63-.01.25.1.46.37.62.1.06.22.12.37.16.12.04.27.08.45.12.07.01.15.03.23.04.12.02.26.04.4.06.1.01.19.03.3.04.21.03.43.05.67.08.12.01.24.03.37.04.06,0,.13.01.19.02.2.02.4.03.61.05.07,0,.14.01.21.02.65.05,1.37.09,2.14.12.17,0,.35.02.52.02.35.01.71.03,1.08.04.19,0,.37.01.56.02.28,0,.57.01.86.02.1,0,.2,0,.29,0,.2,0,.4,0,.59,0,.2,0,.4,0,.6,0,.61,0,1.23,0,1.85,0,.1,0,.21,0,.31,0,.42,0,.84,0,1.27-.01.32,0,.64,0,.96-.01.32,0,.64-.01.96-.02,1.28-.03,2.56-.08,3.8-.14.21-.01.41-.02.62-.04.62-.04,1.22-.08,1.81-.12.2-.02.39-.03.59-.05.48-.04.96-.09,1.41-.14.27-.03.55-.06.81-.09.09-.01.18-.02.26-.03.17-.02.35-.04.51-.07.08-.01.17-.02.25-.03.17-.02.33-.05.49-.07.08-.01.16-.03.24-.04.16-.03.31-.05.46-.08.08-.01.15-.03.23-.04.15-.03.29-.06.44-.08.14-.03.28-.06.42-.09,1.28-.29,2.25-.63,2.76-1.04.87-.69,1.18-1.51,1.17-2.35-.03-2.51-3.02-5.17-3.02-5.17"/>
        <path class="cls-3" d="M200.03,158.57c-.03-.14-.06-.29-.1-.42-.11-.41-.26-.8-.43-1.14-.12-.23-.25-.44-.4-.64-.3-.39-.65-.71-1.07-.95-.16-.09-.32-.17-.48-.23-.06-.02-.11-.04-.17-.06-.17-.06-.34-.1-.53-.13-.06-.01-.12-.02-.18-.03-.12-.02-.25-.02-.37-.03-.88-.03-1.85.2-2.86.66-.14.07-.29.14-.44.21-.66.34-1.33.77-2,1.28-.15.11-.3.23-.45.36-.07.06-.15.12-.22.19-.22.19-.45.39-.67.6-.07.07-.15.14-.22.21-1.64,1.56-3.23,3.59-4.6,5.95-.68,1.18-1.26,2.37-1.74,3.54-.3.75-.57,1.48-.78,2.2-.56,1.85-.84,3.6-.84,5.13.01,2.37.73,4.21,2.18,5.05,1.92,1.11,4.7.23,7.48-2.03.07-.06.15-.12.22-.19.15-.13.3-.26.45-.39.23-.2.45-.41.67-.63.15-.15.3-.3.44-.45.44-.46.88-.95,1.31-1.48.21-.26.43-.53.64-.81.14-.18.28-.37.41-.56.55-.76,1.07-1.58,1.57-2.44,1.24-2.15,2.15-4.32,2.7-6.35.17-.61.3-1.21.41-1.78.03-.19.07-.38.09-.57.04-.28.07-.56.1-.84.08-.91.08-1.76-.02-2.54-.03-.23-.07-.46-.11-.68"/>
        <path class="cls-3" d="M194.36,150.49s.08,0,.13-.01c.09,0,.17-.02.27-.02.23-.02.47-.03.72-.03.5,0,1.02.04,1.5.16.24.06.46.14.67.25.18.1.35.22.5.36.15.15.27.32.36.52-.12-.38-.35-.67-.64-.89-.23-.18-.5-.31-.79-.42-.14-.05-.29-.09-.44-.13-.07-.02-.15-.04-.22-.05-.3-.06-.6-.1-.88-.13-1.24-.09-2.49.12-3.69.49-.48.15-.95.32-1.41.51-.23.09-.46.19-.69.29-1.05.5-2.04,1.12-2.95,1.83-.23.18-.45.36-.67.55-.11.09-.22.19-.33.29-.22.19-.43.39-.64.6-.31.31-.61.62-.91.95-.2.22-.39.44-.57.67-.56.69-1.09,1.41-1.58,2.16-.16.25-.32.51-.48.77-.16.26-.31.52-.46.78-.37.66-.72,1.34-1.04,2.03-.07.14-.13.28-.19.42-.13.28-.25.56-.37.84-.53,1.27-1,2.58-1.39,3.89-.09.29-.17.58-.25.88-.34,1.24-.62,2.49-.84,3.71-.22,1.22-.39,2.43-.5,3.59.32-1.53.7-3.14,1.16-4.77.05-.16.09-.33.14-.49.1-.33.19-.66.3-.99.2-.66.42-1.32.65-1.97.12-.33.23-.66.36-.98.06-.16.12-.33.19-.49.13-.33.26-.65.39-.97.34-.81.7-1.6,1.08-2.39,2.85-5.78,7.11-10.63,13.54-11.81"/>
        <path class="cls-3" d="M200.49,131.07c0-.52-.02-1.02-.06-1.5.39-.75.6-1.72.62-2.86.03-1.64-.33-3.6-1.05-5.71-.28-.81-.61-1.64-.99-2.48-.15-.34-.32-.67-.49-1.01-.17-.34-.35-.68-.54-1.02-.09-.17-.19-.34-.29-.51-.09-.15-.18-.31-.27-.45-.18-.3-.36-.59-.55-.88-.09-.14-.19-.29-.28-.43-.13-.19-.25-.37-.38-.55-.06-.09-.13-.18-.19-.27-.2-.27-.39-.53-.59-.79-.09-.12-.19-.24-.29-.36-.28-.34-.55-.67-.84-.99-.09-.11-.19-.21-.28-.31-.19-.2-.38-.4-.57-.59-.09-.1-.19-.19-.28-.28-.09-.09-.19-.18-.28-.27-.1-.1-.21-.19-.31-.29-.07-.06-.14-.12-.21-.18-.13-.11-.25-.21-.38-.32-.18-.14-.36-.28-.53-.41-.18-.13-.35-.26-.53-.37-.22-.15-.43-.28-.65-.41-.07-.04-.14-.08-.21-.12-.1-.05-.2-.11-.29-.15-.1-.05-.19-.1-.29-.14-.09-.04-.19-.09-.28-.12-.09-.04-.18-.07-.28-.11-.09-.03-.18-.07-.27-.1-.09-.03-.18-.06-.27-.08-.09-.03-.18-.05-.26-.07-.09-.02-.17-.04-.25-.05-.09-.02-.18-.03-.27-.04-.08,0-.16-.02-.24-.02-.08,0-.16,0-.23,0-.04,0-.08,0-.12,0-.12,0-.23.01-.35.03-.04,0-.07.01-.11.02-.04,0-.08.01-.11.02-.08.02-.17.04-.25.06h0c-.07.02-.15.05-.22.08-.07.03-.14.06-.21.1,0,0-.02,0-.02.01-.04.02-.08.04-.11.06-.06.03-.11.07-.17.1-.79.53-1.26,1.39-1.49,2.33-.02.1-.05.2-.07.31-.06.31-.09.62-.1.93,0,.1,0,.2,0,.31,0,.3.02.6.06.89,0,0,0,0,0,.01.03.24.06.48.08.73.03.35.06.7.1,1.05.02.12.04.23.06.34.03.14.06.29.09.43.03.14.07.28.11.42.07.28.15.56.23.84.04.14.08.29.13.43.18.57.37,1.14.59,1.69.11.28.22.56.34.83.06.14.12.27.18.41.13.29.26.58.4.86.04.08.08.16.12.23.04.08.08.16.12.23.04.07.08.15.11.22.08.15.16.31.24.46.03.06.06.12.1.18.11.2.22.4.34.6.68,1.17,1.4,2.26,2.16,3.24.13.16.25.33.38.48.13.16.26.32.39.47.15.17.3.34.44.51-.07.12-.13.24-.2.36-.19.37-.38.75-.56,1.14-.12.26-.24.54-.35.81-.17.41-.33.84-.48,1.29-.1.3-.2.6-.29.9-.09.31-.18.62-.26.93-.04.16-.08.32-.12.48-.08.32-.15.65-.21.98-.06.32-.12.64-.17.96-.14.85-.23,1.68-.27,2.49-.03.51-.04,1-.04,1.48,0,.68.04,1.33.1,1.96.02.18.04.35.06.53.02.17.05.34.08.51.06.34.12.66.2.98.07.31.16.61.25.9.05.14.09.29.15.42.05.14.1.27.16.4.14.33.29.63.45.91.1.17.2.33.31.48.04.05.07.1.11.15.07.1.15.19.23.28.08.09.16.17.24.25.08.08.16.15.25.22.13.11.26.2.4.28.04.03.09.05.14.08.28.15.57.26.88.32.15.03.31.05.46.05.15,0,.31,0,.47-.02.05,0,.1-.01.16-.02.1-.02.21-.04.32-.07.16-.04.31-.09.47-.16.47-.19.94-.48,1.41-.86.1-.08.21-.17.31-.26.1-.09.2-.19.3-.29.35-.35.69-.75,1.03-1.2.14-.19.28-.39.42-.6.14-.21.27-.42.41-.64.62-1.04,1.18-2.24,1.65-3.56.4-1.14.74-2.36.99-3.65.14-.72.25-1.42.33-2.11.03-.28.06-.55.08-.82.02-.27.04-.54.05-.81.02-.4.03-.79.02-1.18"/>
        <path class="cls-3" d="M124.03,137.3c.1-.07.21-.14.31-.21.21-.14.42-.3.64-.47.11-.08.22-.17.33-.26.33-.27.66-.55,1-.86,1.45-1.34,2.95-3.1,4.33-5.14.72-1.06,1.35-2.12,1.9-3.16.36-.69.68-1.37.96-2.03.42-.99.74-1.93.96-2.8.07-.29.13-.57.18-.84.05-.27.09-.53.11-.78.03-.25.04-.49.04-.72,0-.57-.07-1.07-.23-1.49-.06-.16-.14-.31-.22-.45-.13-.2-.29-.37-.49-.5-.42-.28-.95-.36-1.56-.27-.14.02-.29.05-.44.09-.05.01-.1.03-.15.04-.15.05-.31.1-.47.17-.05.02-.11.04-.16.07-.21.09-.44.2-.66.33-.05.03-.11.06-.17.1-2.17,1.26-4.78,3.84-7.05,7.2-1.96,2.9-3.3,5.82-3.85,8.16-.2.82-.3,1.58-.3,2.24,0,.22.01.43.04.62.01.1.03.19.04.28.11.55.32,1,.65,1.3.21.06.41.13.61.23.14.07.27.14.4.22.29.04.61.02.95-.06.17-.04.35-.08.53-.15.18-.06.37-.14.56-.22.38-.17.79-.4,1.2-.66"/>
        <path class="cls-2" d="M147.42,167.66c.44.06.88.12,1.31.2-.23-.04-.46-.08-.69-.12-.21-.03-.42-.06-.63-.08"/>
        <path d="M148.68,89.32s-.03,0-.06,0c-.05.03-.09.06-.13.11.01,0,.05.01.09,0,.04,0,.08-.01.09-.03.02-.04.03-.08.01-.09"/>
        <path d="M144.31,89.54s.07.01.11,0c-.03,0-.07,0-.11,0"/>
        <path d="M144.58,89.33s0-.03,0-.04c0,0,0,0-.01,0,0,0,0,.02.01.02,0,0,0,.01,0,.02"/>
        <path d="M146.14,89.41s-.02,0-.02-.02c.02.02.05.04.07.06.01,0,.03,0,.05,0-.03-.01-.06-.03-.09-.05"/>
        <path class="cls-3" d="M137.47,168c2.81-.26,5.63-.44,8.45-.37.94.02,1.87.09,2.8.22-.44-.08-.87-.14-1.31-.2.21.03.42.05.63.08.23.03.46.07.69.12,0,0,0,0,0,0-.19-.05-.39-.09-.59-.13-.4-.08-.82-.15-1.25-.22-.86-.12-1.76-.2-2.7-.24-2.35-.1-4.9.04-7.44.31-1.27.14-2.53.31-3.76.5-2.46.38-4.78.85-6.74,1.3,1.86-.27,3.73-.53,5.6-.76,1.87-.23,3.74-.44,5.62-.61"/>
        <path class="cls-3" d="M200.46,142.9c6.95-6.81,4.84-19.44,1.3-27.4-2.32-5.21-6.04-9.7-10.67-13.01-.03-.02-.06-.05-.09-.07-.05-.04-.1-.07-.15-.11-.07-.05-.14-.1-.2-.14-.04-.03-.07-.05-.11-.07-.03-.02-.06-.04-.09-.06-.82-.54.84-1.71,1.27-2.4.64-1.04,1.06-2.22,1.28-3.42.6-3.19.15-6.45-.37-9.61-.53-3.22-.88-6.39-1.17-9.64-.04-.45,1.23-2.39,1.49-2.87,2.2-3.89,2.44-7.46,1.08-11.71-2-6.23-7.72-12.68-14.7-12.83-2.61-.06-5.16.74-7.44,1.96-1.18.63-2.29,1.37-3.34,2.19-1.25.98-1.73,2.23-3.53,2.2-1.9-.03-3.87-.63-5.78-.78-2.12-.18-4.25-.21-6.38-.1-3.31.17-6.43.85-9.7,1.29-1.75.23-2.38-.67-3.43-1.92-2.27-2.69-6.2-3.62-9.63-2.83-4.02.93-7.36,3.82-9.42,7.3-2.15,3.64-1.99,6.9-.79,10.76.31.98.74,1.92,1.26,2.81.44.88.96,1.76,1.41,2.41.7,1.01,1.59,1.68,2.62,2.35.64.41,1.15,1.1,1.7,1.63.06.06.09.14.08.23-.43,2.7-.76,5.43-1.16,8.14-.05.36-.21.71-.46,1.04-1.3,1.7-2.48,3.19-3.55,4.49-.29.35-.46.61-.51.78-.29.92.6,1.71,1.44,1.88,0,0,0,0,0,0,0,.01,0,.03,0,.04.01.08.03.16.05.23,0,.03.01.05.02.08.02.1.04.2.07.3,0,0,0,.02,0,.03.13.49.29.97.47,1.4.01.03.03.06.04.09.03.11.07.22.1.33.02.05.03.1.05.16.04.11.08.22.12.32.02.04.03.07.05.11.04.09.07.17.11.25.87,1.87,2.09,3.52,3.65,4.94.7.64,1.43,1.18,2.07,1.79.74.71,1.34,1.32,2.26,1.84.94.53,1.84,1.12,2.71,1.77.01.01.02.03.01.04-.23.45-.47.89-.72,1.31-2.37,1.81-10.93,8.66-14.82,15.8,0,0-.06.1-.16.28-.05.09-.11.21-.18.34-1.05,1.99-4.16,8.37-3.17,12.49-.41.42-.76.92-1.03,1.49-.03.07-.06.13-.09.2-.03.08-.06.16-.1.23-.32.83-.11,1.83-.44,2.59-.34.8-1.2,1.38-1.82,1.95-2.62,2.42-4,6.01-4.05,9.57-.05,3.56,1.17,7.07,3.09,10.07.77,1.2,1.69,2.36,2.95,3.03,2.56,1.35,6.82.34,8.51,3.15,1,1.68-.21,1.83-1.38,2.98-.25.25-.45.5-.63.77-.1.1-.2.21-.3.31-1.47,1.57-2.29,3.26-1.76,4.93,0,0-.01,0-.02.01,0,0-.02.01-.03.03-.02.01-.03.02-.05.04-.44.33-1.97,1.61-.25,2.52.36.19.87.36,1.55.51,4.15.87,8.93.42,13.14.4,6.77-.04,13.61-.26,20.23-1.83.72-.17,1.46-.37,2.04-.83,1.47-1.17.12-3.86.47-5.52.02-.07,1.34.13,1.48.15.07,0,.13.02.21.03,4.42.59,15.97,2.19,17.14,2.88,0,0,0,0,0,0,.42.34.85.69,1.4.85.47.14.96.2,1.46.2.17.25.4.44.65.58,1.07.92,3.3,2.71,5.53,3.82.01,0,.02.01.04.02.12.06.24.12.36.17.01,0,.02.01.03.02,1.37.62,2.71.95,3.75.6,1.78-.17,3.5-.96,4.82-2.18,3.02-2.78,5.32-6.64,7.02-10.34,1.12-2.44,2.2-4.9,3.22-7.38.4-.97.83-1.85,1.05-2.92.05-.22,0-.39-.02-.62l.24-.17c.18-.06.36-.09.5-.14,1.07-.38,1.84-.84,2.76-1.59.6-.49,1.26-.88,1.99-1.16.17-.06.26-.25.21-.42-.05-.17-.04-.33.04-.49.02-.04.02-.08,0-.12.54-6.08-8.88-14.75-8.91-14.78M202.22,119.02h0s0,0,0,0c0,0,0,0,0-.01h0ZM131.03,89.6s-.09,0-.14,0c-.91.07-1.81.15-2.71.31-.79.14-2.01.71-2.76.62-.01,0-.03,0-.04,0-.01,0,1.02-2.57,1.11-2.81.38-.99.51-2.02.65-3.07.12-.9.22-1.86.31-2.9.04-.5.15-1.05.31-1.65.01-.05.03-.1.04-.15.03-.1.06-.2.09-.3.02-.05.03-.1.05-.16,0,0,0,0,0,0,.01-.02.02-.05.03-.08.01-.03.02-.07.03-.11,0,0,0,0,0,0,.08-.23.15-.46.23-.68.17-.42.43-.94.74-1.53.16-.29.33-.61.51-.93.32-.57.68-1.18,1.05-1.82.11-.18.22-.37.33-.55.06-.09.11-.18.17-.28.56-.93,1.16-1.89,1.75-2.82.28-.3.54-.63.78-.97.4-.57.76-1.19,1.13-1.78.09-.14.17-.28.26-.41.62-.96,1.3-1.87,2.03-2.73.42-.49.85-.97,1.3-1.43.45-.46.91-.91,1.39-1.35.4-.3.81-.59,1.23-.86.09-.06.18-.12.27-.17.73-.45,1.47-.84,2.22-1.16.04-.02.07-.03.11-.05.06-.02.12-.05.18-.07.2-.08.4-.15.6-.22.84-.29,1.69-.52,2.59-.68,0,0,.02,0,.03,0,.3-.06.61-.11.92-.15.09-.01.18-.02.26-.03.56-.07,1.13-.14,1.69-.2.85-.09,1.69-.17,2.54-.26.14-.01.28-.03.42-.04.41-.04.81-.08,1.22-.13.16-.02.33-.03.5-.05.19,0,.41-.02.63-.02.45-.01.95-.02,1.49-.01.27,0,.56.01.85.02.43.02.89.04,1.36.08.63.05,1.27.12,1.93.21.17.02.33.05.5.08.81.22,1.6.49,2.38.83.47.2.93.43,1.38.67-.02.05-.03.1-.05.16-.05.15-.1.31-.15.47-.09.29-.16.58-.21.86-.09.47-.14.93-.14,1.38,0,.18,0,.36.02.54.01.18.04.35.06.53.03.18.06.35.11.52.04.17.09.34.15.51,0,0,0,.01,0,.02.03.22.06.44.11.65.11.5.29.99.52,1.47.2.41.45.81.74,1.2l19.81,14.53c.06.07.13.09.21.05.03-.01.06-.03.09-.06l3.44-3.6s.01-.01.02-.01c0,0,.01,0,.02,0,.01,0,.03,0,.03.01.02.01.02.03.03.04s0,.03-.01.05c-.17.32-.38.6-.63.86-.94.97-1.86,1.94-2.77,2.93-.3.33-.61.66-.91.99-.31.34-.62.68-.94,1.02-.95,1.01-1.93,2.01-2.92,3-.49.5-.99.99-1.49,1.49-.5.49-1,.99-1.5,1.48-.33.33-.67.66-1,.99-.76.07-1.48.15-2.16.26-.41.07-.8.14-1.18.23-.11-.1-.23-.2-.34-.3-.12-.1-.24-.19-.36-.28-.24-.18-.49-.36-.75-.52-1.07-.68-2.39-1.16-3.69-1.48-.11-.03-.22-.05-.33-.07-.22-.05-.43-.09-.65-.13-.11-.02-.21-.04-.32-.06-.9-.15-1.84-.28-2.82-.39-.49-.05-.98-.1-1.49-.14-.51-.04-1.02-.08-1.55-.11l-5.99-.11c-.35,0-.7,0-1.05,0-.21,0-.42,0-.64.01-.88.02-1.76.04-2.64.06-.79.02-2,.27-2.72.02.51-2.02,1.48-4.02,2.2-5.98-1.02,1.45-1.95,2.96-2.8,4.51-.47.86-1.29,2.21-2.49,1.78-1.06-1.97-2.29-3.84-3.68-5.58.41.94.8,1.89,1.19,2.84.35.86.96,1.89,1.08,2.81-3.09.52-6.32.33-9.44.35-.16,0-.31,0-.47,0-.2,0-.41,0-.61.01-.25,0-.5-.01-.74-.02-.09,0-.19,0-.28,0-.64,0-1.27.01-1.9.04M133.84,107.37c-.14-.08-.28-.16-.41-.24-.4-.24-.76-.52-1.1-.83-.07-.07-.07-.12,0-.14.01,0,.02,0,.04-.01,0,0,.04,0,.05,0,.95.19,1.94.19,2.95-.02,1.57-.32,2.83-1.05,3.78-2.19,1.09-1.31,1.88-2.76,2.6-4.25.2-.41.38-.81.57-1.22.12-.27.25-.55.37-.82.05-.06.1-.11.15-.16.36-.36.82-.61,1.53-.78.1-.02.19-.04.29-.06.17-.03.33-.04.5-.05.33,0,.65.03.96.11.16.04.31.09.46.16.24.29.49.58.73.86,1.74,1.99,3.65,3.87,5.76,5.64.65.55,1.34,1.06,2.07,1.54.49.32.99.63,1.51.92.78.44,1.6.85,2.46,1.23.15.07.3.13.45.18.3.12.61.22.93.32.79.23,1.6.39,2.43.49.33.04.66.07.99.09.83.05,1.65.04,2.45-.02.16-.01.32-.03.48-.04.27-.03.53-.06.79-.1,1.29-.2,2.45-.57,3.55-1.18.22-.12.44-.25.65-.39.21-.14.43-.29.64-.45.2-.15.4-.32.59-.48.1-.08.19-.17.28-.26.75-.72,1.39-1.55,1.91-2.46.11-.2.22-.41.32-.61.05-.1.1-.21.15-.32.14-.32.26-.64.37-.97.36-1.1.52-2.25.46-3.4-.04-.8-.19-1.61-.47-2.39.02,0,.04,0,.07-.01.07-.01.15-.03.22-.05.07-.02.15-.04.22-.06.43-.13.86-.35,1.28-.65.09-.1.16-.22.23-.33.05-.08.09-.15.14-.23.07-.11.15-.21.25-.3.02-.02.04-.03.06-.05.04-.03.08-.06.12-.09.03-.02.05-.04.08-.06.08-.06.15-.12.21-.19,1.71-1.78,3.44-3.54,5.19-5.28l6.29-6.17s.02-.02.03-.02c.03-.02.05-.03.07-.03.04.27.07.56.11.85.04.29.07.59.11.9.06.46.12.93.17,1.42.06.49.12.98.17,1.48.09.75.17,1.52.25,2.29.03.26.05.51.07.77,0,0,0,.03,0,.1,0,.02,0,.05,0,.09,0,.03,0,.07,0,.11,0,.03,0,.06,0,.09,0,.03,0,.06,0,.1,0,.03,0,.07,0,.11,0,.04,0,.08,0,.12.04.54.08,1.35.12,2.27,0,.1,0,.21.01.31h0c0,.11,0,.21.01.32h0c0,.11,0,.21,0,.32.01.43.02.88.02,1.32,0,.98-.03,1.94-.11,2.75,0,.05-.01.1-.02.15-.04.34-.09.65-.15.92,0,.04-.02.07-.03.11-.02.07-.04.14-.06.21-.03.1-.07.18-.1.26-.04.08-.08.15-.12.2-.03.04-.06.07-.09.1-.09.08-.18.15-.27.23-.26.23-.53.46-.78.7-.17.16-.34.32-.5.49-.16.17-.32.35-.48.53-.06.08-.13.15-.19.23-.06.08-.13.15-.19.23,0,0,0,0,0,0,0,0,0,0,0,0-.29.27-.57.53-.86.79-1.74,1.55-3.54,2.98-5.47,4.28-.32.22-.65.43-.98.64-.06.04-.11.07-.17.11-.02.01-.05.03-.07.04-.45.28-.89.55-1.35.81-.75.43-1.52.83-2.35,1.2,0,0,0,0-.01,0,0,0-.01,0-.02,0,0,0-.02,0-.03.01-.01,0-.02.01-.04.02-.01,0-.03.01-.05.02-.03.02-.07.03-.12.05-.03.02-.07.03-.11.05-.03.01-.06.03-.09.04-.06.03-.13.06-.21.09-.04.02-.08.03-.12.05-.02,0-.03.02-.05.02-.02,0-.05.02-.07.03-.02,0-.05.02-.07.03-.05.02-.11.05-.16.07-.17.07-.35.15-.54.23-.25.11-.52.22-.79.34-.06.03-.13.05-.19.08-.15.06-.3.13-.45.19-.01,0-.03.01-.04.02-.01,0-.03.01-.04.02-.02.01-.05.02-.07.03l-.07.03s-.09.04-.13.05c-.04.02-.09.04-.13.05,0,0-.01-.01-.01-.02,0,0,0,0,0,0h0s0,.01.01.02c-.19.08-.38.16-.56.23-.13.05-.26.1-.38.15-.04.02-.08.03-.12.04-.08.03-.15.06-.22.08-.07.02-.14.05-.2.07-.12.04-.23.07-.31.1-.78.22-1.59.42-2.43.6-1.4.31-2.88.56-4.43.77-.23.03-.45.06-.68.09-.67.09-1.32.18-1.95.26-.63.08-1.23.16-1.82.23-.39.05-.77.1-1.14.14-1.3.16-2.48.3-3.54.42-.55.06-1.11.12-1.65.18-.44.04-.88.08-1.32.11-1.2.08-2.4.11-3.59,0-1.29-.12-2.57-.41-3.84-.94-.16-.07-.32-.15-.48-.21-.16-.07-.32-.13-.47-.2-.33-.14-.65-.29-.97-.43-.32-.14-.63-.29-.94-.43-.46-.22-.91-.43-1.35-.65-.15-.07-.29-.14-.43-.22-.52-.26-1.04-.55-1.56-.85-.86-.51-1.73-1.05-2.58-1.57-.13-.08-.26-.15-.39-.23-.79-.46-1.67-.89-2.5-1.37M121.73,138.33c-.34.07-.66.09-.95.06-.13-.08-.26-.16-.4-.22-.2-.09-.4-.17-.61-.23-.33-.31-.54-.75-.65-1.3-.02-.09-.03-.19-.04-.28-.03-.2-.04-.41-.04-.62,0-.66.1-1.41.3-2.24.56-2.34,1.89-5.25,3.85-8.16,2.27-3.36,4.88-5.95,7.05-7.2.06-.03.12-.07.17-.1.23-.12.45-.23.66-.33.05-.02.11-.05.16-.07.16-.06.32-.12.47-.17.05-.02.1-.03.15-.04.15-.04.29-.07.44-.09.61-.1,1.14-.01,1.56.27.19.13.35.3.49.5.09.14.16.29.22.45.15.41.23.91.23,1.49,0,.23-.01.47-.04.72-.03.25-.06.51-.11.78-.05.27-.11.55-.18.84-.22.87-.54,1.81-.96,2.8-.28.66-.6,1.34-.96,2.03-.54,1.04-1.18,2.1-1.9,3.16-1.38,2.04-2.88,3.79-4.33,5.14-.33.31-.67.6-.99.86-.11.09-.22.17-.33.26-.22.17-.43.32-.64.47-.11.07-.21.14-.31.21-.41.27-.82.49-1.2.66-.19.09-.38.16-.56.22-.18.06-.36.11-.53.15M151.83,179.42c-.51.41-1.48.76-2.76,1.04-.13.03-.27.06-.42.09-.14.03-.29.06-.44.08-.07.01-.15.03-.23.04-.15.03-.31.05-.46.08-.08.01-.16.03-.24.04-.16.02-.32.05-.49.07-.08.01-.17.02-.25.03-.17.02-.34.05-.51.07-.09.01-.17.02-.26.03-.26.03-.54.06-.81.09-.46.05-.93.09-1.41.14-.19.02-.39.03-.59.05-.59.05-1.19.09-1.81.12-.21.01-.41.03-.62.04-1.24.07-2.52.11-3.8.14-.32,0-.64.01-.96.02-.32,0-.64.01-.96.01-.42,0-.85,0-1.27.01-.11,0-.21,0-.31,0-.63,0-1.24,0-1.85,0-.2,0-.4,0-.6,0-.2,0-.4,0-.59,0-.1,0-.2,0-.29,0-.29,0-.58-.01-.86-.02-.19,0-.38-.01-.56-.02-.37-.01-.73-.03-1.08-.04-.18,0-.35-.01-.52-.02-.77-.04-1.49-.08-2.14-.12-.07,0-.14-.01-.21-.02-.21-.02-.42-.03-.61-.05-.06,0-.13-.01-.19-.02-.13-.01-.25-.02-.37-.04-.24-.03-.46-.05-.67-.08-.11-.01-.2-.03-.3-.04-.14-.02-.28-.04-.4-.06-.08-.01-.16-.03-.23-.04-.18-.04-.33-.08-.45-.12-.14-.05-.26-.1-.37-.16-.26-.17-.38-.38-.37-.62.06-1.52,4.74-4.46,7.24-6.63.1-.09.2-.18.29-.26.09-.09.19-.17.27-.25.11-.1.24-.2.39-.29.12-.07.26-.14.41-.21.11-.05.23-.1.36-.14.13-.05.26-.09.41-.13,5.34-1.53,20.07-.31,20.07-.31,0,0,2.99,2.67,3.02,5.17.01.83-.31,1.65-1.17,2.35M126.26,169.37c1.96-.45,4.29-.91,6.74-1.3,1.23-.19,2.49-.36,3.76-.5,2.53-.27,5.09-.41,7.44-.31.94.04,1.85.12,2.7.24.43.06.85.13,1.25.22.2.04.4.09.59.13,0,0,0,0,0,0-.93-.13-1.86-.2-2.8-.22-2.82-.07-5.65.11-8.45.37-1.88.17-3.75.37-5.62.61-1.87.23-3.74.49-5.6.76M156.87,172.55c-2.54-15.52-34.43-28.07-34.44-28.07.53-.22,1.04-.47,1.54-.76.17-.09.33-.19.49-.29.52.12,1.06.26,1.6.43.18.05.36.11.55.17.09.03.18.06.27.09.18.06.37.12.55.19.18.06.37.13.55.2.18.07.37.14.55.21.18.07.37.14.55.22,4.28,1.7,8.21,3.95,8.21,3.95,3.49-2.31,6.33-9.67,8.31-16.58.11-.38.22-.77.32-1.15.11-.38.21-.76.31-1.13.35-1.31.67-2.58.95-3.77.08-.34.16-.67.23-1,.56-2.45.96-4.47,1.19-5.68,1.38.28,2.84.44,4.35.49.38.01.76.02,1.15.02.39,0,.77,0,1.16-.01,1.17-.03,2.36-.11,3.56-.24.8-.08,1.6-.18,2.41-.3.2-.03.4-.06.6-.09.6-.09,1.2-.2,1.8-.31,1.2-.22,2.39-.47,3.56-.74-.51,2.11-1.22,5.23-1.89,8.72-.3,1.55-.58,3.18-.84,4.83-.06.41-.13.82-.19,1.24-.12.83-.23,1.66-.33,2.48-.05.41-.1.82-.14,1.23-.04.41-.08.82-.12,1.22-.05.61-.1,1.21-.14,1.8-.06.98-.1,1.94-.11,2.86-.02,3.68.44,6.73,1.75,8.31,0,0,2.61-2.94,5.91-6.16.22-.22.44-.43.67-.65.23-.22.45-.43.68-.65.23-.22.46-.43.7-.65.23-.22.47-.43.7-.64.59-.53,1.18-1.05,1.78-1.55.24-.2.47-.39.71-.58.94-.76,1.86-1.44,2.72-2.01,1.19-.77,2.28-1.31,3.17-1.48-20.46,13.15-25.36,35.82-25.36,35.82M179.75,164.68c-.13.32-.26.65-.39.97-.06.16-.13.33-.19.49-.12.33-.24.65-.36.98-.23.66-.45,1.31-.65,1.97-.1.33-.2.66-.3.99-.05.16-.09.33-.14.49-.46,1.63-.84,3.24-1.16,4.77.11-1.16.28-2.36.5-3.59.22-1.22.5-2.47.84-3.71.08-.29.16-.59.25-.88.39-1.31.85-2.62,1.39-3.89.12-.28.24-.56.37-.84.06-.14.13-.28.19-.42.32-.69.67-1.37,1.04-2.03.15-.26.3-.53.46-.78.16-.26.32-.51.48-.77.49-.75,1.02-1.48,1.58-2.16.19-.23.38-.45.57-.67.3-.33.6-.65.91-.95.21-.2.42-.4.64-.6.11-.1.22-.19.33-.29.22-.19.44-.37.67-.55.92-.71,1.9-1.33,2.95-1.83.22-.1.45-.2.69-.29.46-.19.93-.36,1.41-.51,1.2-.37,2.44-.57,3.69-.49.28.03.58.06.88.13.07.02.15.03.22.05.15.04.3.08.44.13.29.11.56.24.79.42.29.22.52.51.64.89-.09-.2-.21-.37-.36-.52-.14-.14-.31-.26-.5-.36-.21-.11-.43-.19-.67-.25-.48-.12-1-.16-1.5-.16-.25,0-.49.01-.72.03-.09,0-.18.01-.27.02-.04,0-.09,0-.13.01-6.43,1.18-10.69,6.03-13.54,11.81-.38.78-.74,1.58-1.08,2.39M200.16,161.78c-.03.27-.06.55-.1.84-.03.19-.06.38-.09.57-.1.58-.24,1.17-.41,1.78-.55,2.03-1.46,4.2-2.7,6.35-.5.86-1.02,1.67-1.57,2.44-.14.19-.28.38-.41.56-.21.28-.42.55-.64.81-.43.52-.87,1.02-1.31,1.48-.15.15-.3.3-.44.45-.22.22-.44.43-.67.63-.15.13-.3.26-.45.39-.08.06-.15.13-.22.19-2.78,2.26-5.56,3.14-7.48,2.03-1.45-.84-2.17-2.68-2.18-5.05,0-1.53.27-3.28.84-5.13.22-.72.48-1.45.78-2.2.48-1.17,1.06-2.36,1.74-3.54,1.36-2.36,2.96-4.39,4.6-5.95.07-.07.15-.14.22-.21.22-.21.45-.41.67-.6.07-.06.15-.13.22-.19.15-.12.3-.24.45-.36.67-.51,1.35-.94,2-1.28.15-.07.29-.15.44-.21,1.01-.46,1.98-.69,2.86-.66.13,0,.25.01.37.03.06,0,.12.02.18.03.18.03.36.07.53.13.06.02.11.04.17.06.16.06.33.14.48.23.41.24.77.56,1.07.95.15.2.28.41.4.64.18.34.32.73.43,1.14.04.14.07.28.1.42.04.22.08.44.11.68.09.77.1,1.63.02,2.54M200.33,133.88c-.08.69-.19,1.4-.33,2.11-.25,1.29-.59,2.51-.99,3.65-.47,1.32-1.03,2.52-1.65,3.56-.13.22-.27.44-.41.64-.14.21-.28.41-.42.6-.33.45-.68.85-1.03,1.2-.1.1-.2.2-.3.29-.1.09-.2.18-.31.26-.46.38-.93.66-1.41.86-.16.06-.32.12-.47.16-.11.03-.21.05-.32.07-.05,0-.1.02-.16.02-.16.02-.31.03-.47.02-.16,0-.31-.02-.46-.05-.31-.06-.6-.17-.88-.32-.05-.03-.09-.05-.14-.08-.14-.08-.27-.18-.4-.28-.09-.07-.17-.14-.25-.22-.08-.08-.16-.16-.24-.25-.08-.09-.15-.18-.23-.28-.04-.05-.07-.1-.11-.15-.11-.15-.21-.31-.31-.48-.16-.28-.32-.59-.45-.91-.06-.13-.11-.26-.16-.4-.05-.14-.1-.28-.15-.42-.09-.29-.18-.59-.25-.9-.07-.32-.14-.64-.2-.98-.03-.17-.05-.34-.08-.51-.02-.17-.04-.35-.06-.53-.06-.62-.1-1.28-.1-1.96,0-.48.01-.98.04-1.48.05-.81.14-1.64.27-2.49.05-.32.11-.64.17-.96.06-.33.13-.66.21-.98.04-.16.08-.32.12-.48.08-.32.17-.63.26-.93.09-.31.19-.61.29-.9.15-.44.31-.87.48-1.29.11-.28.23-.55.35-.81.18-.4.37-.78.56-1.14.07-.12.13-.24.2-.36-.15-.17-.3-.34-.44-.51-.13-.15-.26-.31-.39-.47-.13-.16-.25-.32-.38-.48-.76-.99-1.49-2.07-2.16-3.24-.12-.2-.23-.4-.34-.6-.03-.06-.07-.12-.1-.18-.08-.15-.16-.3-.24-.46-.04-.07-.08-.15-.11-.22-.04-.08-.08-.16-.12-.23-.04-.08-.08-.15-.12-.23-.14-.28-.27-.57-.4-.86-.06-.14-.12-.27-.18-.41-.12-.27-.23-.55-.34-.83-.22-.56-.41-1.12-.59-1.69-.04-.14-.09-.29-.13-.43-.08-.28-.16-.56-.23-.84-.04-.14-.07-.28-.11-.42-.03-.14-.06-.28-.09-.43-.02-.11-.04-.23-.06-.34-.05-.35-.07-.7-.1-1.05-.03-.24-.06-.48-.08-.73,0,0,0,0,0-.01-.04-.28-.06-.58-.06-.89,0-.1,0-.2,0-.31.01-.31.05-.62.1-.93.02-.1.04-.2.07-.31.2-.94.65-1.78,1.49-2.33.06-.04.11-.07.17-.1.04-.02.08-.04.11-.06,0,0,.02,0,.02-.01.07-.03.14-.07.21-.1.07-.03.15-.05.22-.08h0c.08-.03.16-.05.25-.06.04,0,.07-.01.11-.02.04,0,.07-.02.11-.02.11-.02.23-.02.35-.03.04,0,.08,0,.12,0,.08,0,.15,0,.23,0,.08,0,.16.01.24.02.09.01.18.02.27.04.08.01.17.03.25.05.09.02.17.04.26.07.09.02.18.05.27.08.09.03.18.06.27.1.09.03.18.07.28.11.09.04.19.08.28.12.1.04.19.09.29.14.1.05.19.1.29.15.07.04.14.08.21.12.21.12.43.26.65.41.18.12.35.24.53.37.18.13.35.27.53.41.13.1.25.21.38.32.07.06.14.12.21.18.1.09.21.19.31.29.09.09.19.18.28.27.09.09.19.18.28.28.19.19.38.39.57.59.09.1.19.2.28.31.28.31.56.64.84.99.1.12.19.24.29.36.2.25.39.52.59.79.06.09.13.18.19.27.13.18.25.37.38.55.09.14.19.28.28.43.19.29.37.58.55.88.09.15.18.3.27.45.1.17.19.34.29.51.19.34.37.68.54,1.02.17.34.33.67.49,1.01.38.84.72,1.67.99,2.48.72,2.1,1.08,4.07,1.05,5.71-.02,1.13-.22,2.11-.62,2.86.04.49.06.99.06,1.5,0,.39,0,.78-.02,1.18-.01.27-.03.54-.05.81-.02.27-.05.55-.08.82"/>
      </g>
    </g>
  </g>
</svg>